<svg width="258" height="209" viewBox="0 0 258 209" fill="none" xmlns="http://www.w3.org/2000/svg">
<rect y="24" width="75" height="154" fill="url(#paint0_linear_0_1)"/>
<rect x="254.988" y="178.326" width="75" height="154" transform="rotate(-178.968 254.988 178.326)" fill="url(#paint1_linear_0_1)"/>
<path d="M41.7464 23.4133C50.2625 15.5437 63.8322 9.09744 80.5792 4.96588C97.3262 0.834313 116.423 -0.778432 135.229 0.350641C154.036 1.47971 171.622 5.29483 185.557 11.2684C199.492 17.2421 209.087 25.0791 213.015 33.6958L208.578 34.1322C204.845 25.9426 195.725 18.494 182.481 12.8165C169.237 7.13893 152.522 3.51292 134.648 2.43981C116.774 1.3667 98.6235 2.8995 82.7066 6.82629C66.7897 10.7531 53.8925 16.8798 45.7985 24.3594L41.7464 23.4133Z" fill="#D9D9D9"/>
<path d="M211.427 178.26C206.18 186.724 195.401 194.222 180.581 199.716C165.76 205.211 147.631 208.431 128.699 208.931C109.767 209.432 90.9674 207.188 74.9006 202.51C58.8338 197.831 46.2932 190.95 39.0127 182.817L43.2004 182.009C50.12 189.738 62.0391 196.278 77.3095 200.725C92.5799 205.171 110.447 207.304 128.441 206.828C146.435 206.353 163.666 203.292 177.751 198.07C191.837 192.848 202.082 185.722 207.069 177.677L211.427 178.26Z" fill="#D9D9D9"/>
<defs>
<linearGradient id="paint0_linear_0_1" x1="37.5" y1="24" x2="37.5" y2="178" gradientUnits="userSpaceOnUse">
<stop stop-color="#D9D9D9"/>
<stop offset="1" stop-color="#D9D9D9" stop-opacity="0"/>
</linearGradient>
<linearGradient id="paint1_linear_0_1" x1="292.488" y1="178.326" x2="292.488" y2="332.326" gradientUnits="userSpaceOnUse">
<stop stop-color="#D9D9D9"/>
<stop offset="1" stop-color="#D9D9D9" stop-opacity="0"/>
</linearGradient>
</defs>
</svg>
